<?xml version="1.0" encoding="UTF-8"?>
<svg version="1.1" xmlns="http://www.w3.org/2000/svg" width="180" height="180">
<path d="M0 0 C6.53817027 1.92642517 12.02728041 6.41842558 17.0625 10.90234375 C17.0625 11.56234375 17.0625 12.22234375 17.0625 12.90234375 C17.805 13.17046875 18.5475 13.43859375 19.3125 13.71484375 C21.95311949 14.85511126 23.91802844 15.99614681 26.0625 17.90234375 C26.0625 18.56234375 26.0625 19.22234375 26.0625 19.90234375 C26.76246094 20.12792969 27.46242188 20.35351562 28.18359375 20.5859375 C31.68109462 22.18520181 34.28183518 24.43547881 37.125 26.96484375 C43.2269266 32.26434432 49.56076845 37.09869013 56.0625 41.90234375 C57.73440197 43.16628162 59.40154242 44.43655777 61.0625 45.71484375 C61.743125 46.23691406 62.42375 46.75898437 63.125 47.296875 C63.764375 47.82667969 64.40375 48.35648438 65.0625 48.90234375 C66.09691978 49.73211227 66.09691978 49.73211227 67.15223694 50.5786438 C69.73111244 53.71566351 69.56365839 55.65595448 69.56420898 59.68701172 C69.57231346 60.69755615 69.57231346 60.69755615 69.58058167 61.72851562 C69.59306719 63.95097075 69.57657755 66.17212951 69.55859375 68.39453125 C69.55874878 69.94385852 69.56023843 71.49318618 69.56300354 73.04251099 C69.56438757 76.28909459 69.55183233 79.53523646 69.52905273 82.78173828 C69.50071511 86.93345437 69.50339229 91.08443398 69.51614285 95.23620415 C69.52311591 98.4362308 69.51529148 101.63608879 69.50288582 104.8360939 C69.49838374 106.36622596 69.49802361 107.89637621 69.50195122 109.42650986 C69.50487832 111.57100923 69.48828539 113.71451345 69.46655273 115.85888672 C69.46114975 117.07704071 69.45574677 118.2951947 69.45018005 119.55026245 C69.01861737 123.28177554 68.00892992 125.70667403 66.0625 128.90234375 C63.875 130.27734375 63.875 130.27734375 62.0625 130.90234375 C62.0625 131.56234375 62.0625 132.22234375 62.0625 132.90234375 C60.375 134.41796875 60.375 134.41796875 58.0625 136.15234375 C57.24652344 136.76722656 56.43054688 137.38210937 55.58984375 138.015625 C54.75582031 138.63824219 53.92179687 139.26085937 53.0625 139.90234375 C52.30066406 140.49402344 51.53882813 141.08570313 50.75390625 141.6953125 C50.05136719 142.23800781 49.34882813 142.78070313 48.625 143.33984375 C47.98691406 143.83355469 47.34882813 144.32726562 46.69140625 144.8359375 C45.0625 145.90234375 45.0625 145.90234375 43.0625 145.90234375 C43.0625 146.56234375 43.0625 147.22234375 43.0625 147.90234375 C41.453125 149.3046875 41.453125 149.3046875 39.3125 150.83984375 C38.26835937 151.59587891 38.26835937 151.59587891 37.203125 152.3671875 C36.49671875 152.87378906 35.7903125 153.38039062 35.0625 153.90234375 C34.00289062 154.73958984 34.00289062 154.73958984 32.921875 155.59375 C31.0625 156.90234375 31.0625 156.90234375 29.0625 156.90234375 C29.0625 157.56234375 29.0625 158.22234375 29.0625 158.90234375 C27.40479079 160.23853996 25.68397984 161.49696514 23.9375 162.71484375 C20.68618876 165.01210227 17.50354104 167.28828933 14.5 169.90234375 C12.0625 171.90234375 12.0625 171.90234375 10.0625 171.90234375 C10.0625 172.56234375 10.0625 173.22234375 10.0625 173.90234375 C8.0859375 175.6640625 8.0859375 175.6640625 5.4375 177.58984375 C4.14972656 178.55470703 4.14972656 178.55470703 2.8359375 179.5390625 C-0.69465883 181.27452464 -2.21801085 181.09685332 -5.9375 179.90234375 C-8.578125 178.1171875 -8.578125 178.1171875 -11.1875 175.83984375 C-12.14527344 175.02128906 -13.10304687 174.20273438 -14.08984375 173.359375 C-15.02957031 172.54855469 -15.96929687 171.73773438 -16.9375 170.90234375 C-18.53446093 169.60177877 -20.13839842 168.30972194 -21.75 167.02734375 C-22.55566406 166.38539063 -23.36132812 165.7434375 -24.19140625 165.08203125 C-25.09761719 164.36273438 -26.00382812 163.6434375 -26.9375 162.90234375 C-27.49937012 162.45536133 -28.06124023 162.00837891 -28.64013672 161.54785156 C-30.48711447 160.07995648 -32.33695898 158.61574332 -34.1875 157.15234375 C-34.76604736 156.69230957 -35.34459473 156.23227539 -35.94067383 155.75830078 C-38.67846548 153.59968005 -41.41399665 151.56727231 -44.359375 149.69921875 C-45.21015625 149.10625 -46.0609375 148.51328125 -46.9375 147.90234375 C-46.9375 147.24234375 -46.9375 146.58234375 -46.9375 145.90234375 C-47.51886719 145.63035156 -48.10023437 145.35835937 -48.69921875 145.078125 C-50.91646152 143.91339538 -52.76980816 142.61834213 -54.75 141.08984375 C-57.43297763 139.03104854 -60.14578872 137.06067378 -62.9375 135.15234375 C-64.4225 134.03859375 -64.4225 134.03859375 -65.9375 132.90234375 C-65.9375 132.24234375 -65.9375 131.58234375 -65.9375 130.90234375 C-66.535625 130.69609375 -67.13375 130.48984375 -67.75 130.27734375 C-70.84273621 128.33333813 -71.54567393 126.25444 -72.9375 122.90234375 C-73.33190918 119.60168457 -73.33190918 119.60168457 -73.35742188 115.98242188 C-73.36589142 115.3181871 -73.37436096 114.65395233 -73.38308716 113.96958923 C-73.4063397 111.79072524 -73.40748239 109.61257201 -73.40625 107.43359375 C-73.4133575 105.90954307 -73.42105736 104.38549505 -73.42932129 102.8614502 C-73.44273815 99.67399649 -73.44434701 96.48679038 -73.43847656 93.29931641 C-73.43257554 89.22364037 -73.46319996 85.14915356 -73.50359344 81.07370758 C-73.52949435 77.9285853 -73.53234591 74.78374877 -73.52870178 71.63853455 C-73.53039006 70.1362763 -73.5400046 68.63400444 -73.55784607 67.1318512 C-73.69734372 53.93839764 -73.69734372 53.93839764 -70.57617188 50.02148438 C-68.05474894 47.9965074 -66.03803389 46.78821058 -62.9375 45.90234375 C-62.9375 45.24234375 -62.9375 44.58234375 -62.9375 43.90234375 C-60.55599573 41.99230479 -58.16129669 40.18597289 -55.6875 38.40234375 C-49.29759928 33.72221562 -43.18025728 28.85383371 -37.1953125 23.66796875 C-34.9375 21.90234375 -34.9375 21.90234375 -32.9375 21.90234375 C-32.9375 21.24234375 -32.9375 20.58234375 -32.9375 19.90234375 C-31.9475 19.90234375 -30.9575 19.90234375 -29.9375 19.90234375 C-29.9375 19.24234375 -29.9375 18.58234375 -29.9375 17.90234375 C-27.99198338 16.25752521 -26.04556201 14.72633999 -24 13.21484375 C-19.11434849 9.59346333 -19.11434849 9.59346333 -14.45703125 5.6875 C-9.89158815 1.62101243 -6.22527297 -0.36255141 0 0 Z " fill="#D89D81" transform="translate(91.9375,-0.90234375)"/>
<path d="M0 0 C6.70916306 1.48914598 12.21973569 6.2261857 17.2734375 10.7265625 C17.2734375 11.3865625 17.2734375 12.0465625 17.2734375 12.7265625 C18.0159375 12.9946875 18.7584375 13.2628125 19.5234375 13.5390625 C22.16405699 14.67933001 24.12896594 15.82036556 26.2734375 17.7265625 C26.2734375 18.3865625 26.2734375 19.0465625 26.2734375 19.7265625 C26.97339844 19.95214844 27.67335937 20.17773438 28.39453125 20.41015625 C31.89203212 22.00942056 34.49277268 24.25969756 37.3359375 26.7890625 C43.4378641 32.08856307 49.77170595 36.92290888 56.2734375 41.7265625 C57.94533947 42.99050037 59.61247992 44.26077652 61.2734375 45.5390625 C61.9540625 46.06113281 62.6346875 46.58320312 63.3359375 47.12109375 C63.9753125 47.65089844 64.6146875 48.18070313 65.2734375 48.7265625 C66.30785728 49.55633102 66.30785728 49.55633102 67.36317444 50.40286255 C69.94204994 53.53988226 69.77459589 55.48017323 69.77514648 59.51123047 C69.78325096 60.5217749 69.78325096 60.5217749 69.79151917 61.55273438 C69.80400469 63.7751895 69.78751505 65.99634826 69.76953125 68.21875 C69.76968628 69.76807727 69.77117593 71.31740493 69.77394104 72.86672974 C69.77532507 76.11331334 69.76276983 79.35945521 69.73999023 82.60595703 C69.71165261 86.75767312 69.71432979 90.90865273 69.72708035 95.0604229 C69.73405341 98.26044955 69.72622898 101.46030754 69.71382332 104.66031265 C69.70932124 106.19044471 69.70896111 107.72059496 69.71288872 109.25072861 C69.71581582 111.39522798 69.69922289 113.5387322 69.67749023 115.68310547 C69.67208725 116.90125946 69.66668427 118.11941345 69.66111755 119.3744812 C69.22955487 123.10599429 68.21986742 125.53089278 66.2734375 128.7265625 C64.0859375 130.1015625 64.0859375 130.1015625 62.2734375 130.7265625 C62.2734375 131.3865625 62.2734375 132.0465625 62.2734375 132.7265625 C60.5859375 134.2421875 60.5859375 134.2421875 58.2734375 135.9765625 C57.45746094 136.59144531 56.64148438 137.20632812 55.80078125 137.83984375 C54.96675781 138.46246094 54.13273437 139.08507812 53.2734375 139.7265625 C52.51160156 140.31824219 51.74976563 140.90992188 50.96484375 141.51953125 C50.26230469 142.06222656 49.55976563 142.60492188 48.8359375 143.1640625 C48.19785156 143.65777344 47.55976563 144.15148437 46.90234375 144.66015625 C45.2734375 145.7265625 45.2734375 145.7265625 43.2734375 145.7265625 C43.2734375 146.3865625 43.2734375 147.0465625 43.2734375 147.7265625 C41.6640625 149.12890625 41.6640625 149.12890625 39.5234375 150.6640625 C38.47929687 151.42009766 38.47929687 151.42009766 37.4140625 152.19140625 C36.70765625 152.69800781 36.00125 153.20460937 35.2734375 153.7265625 C34.21382812 154.56380859 34.21382812 154.56380859 33.1328125 155.41796875 C31.2734375 156.7265625 31.2734375 156.7265625 29.2734375 156.7265625 C29.2734375 157.3865625 29.2734375 158.0465625 29.2734375 158.7265625 C27.61572829 160.06275871 25.89491734 161.32118389 24.1484375 162.5390625 C20.89712626 164.83632102 17.71447854 167.11250808 14.7109375 169.7265625 C12.2734375 171.7265625 12.2734375 171.7265625 10.2734375 171.7265625 C10.2734375 172.3865625 10.2734375 173.0465625 10.2734375 173.7265625 C6.8084375 175.7065625 6.8084375 175.7065625 3.2734375 177.7265625 C3.04107787 169.12936152 2.86373557 160.53348507 2.75531578 151.93391418 C2.70326028 147.93999859 2.63274767 143.94824024 2.51904297 139.95556641 C2.4098652 136.0974229 2.35049384 132.24134453 2.32466507 128.3817749 C2.30627698 126.91436245 2.27036302 125.44705526 2.21613693 123.98052979 C1.80877509 112.5002166 1.80877509 112.5002166 5.46391296 108.07397461 C7.97911878 106.04610821 10.4919421 104.36200901 13.2734375 102.7265625 C14.23378906 101.9634375 15.19414063 101.2003125 16.18359375 100.4140625 C16.89386719 99.8571875 17.60414062 99.3003125 18.3359375 98.7265625 C19.43615234 97.8603125 19.43615234 97.8603125 20.55859375 96.9765625 C22.2734375 95.7265625 22.2734375 95.7265625 23.2734375 95.7265625 C23.6034375 102.9865625 23.9334375 110.2465625 24.2734375 117.7265625 C30.14511785 116.27362757 30.14511785 116.27362757 34.6953125 113.484375 C35.52095703 112.84435547 35.52095703 112.84435547 36.36328125 112.19140625 C36.91113281 111.74925781 37.45898438 111.30710937 38.0234375 110.8515625 C38.86841797 110.19994141 38.86841797 110.19994141 39.73046875 109.53515625 C43.59050506 106.49640426 46.76053902 103.99953477 47.86791992 99.09204102 C49.37992421 85.87248466 49.37992421 85.87248466 45.94775391 73.43017578 C42.41277165 69.47341169 38.06462829 66.76734426 33.52246094 64.09033203 C29.94548365 61.92131389 26.70503443 59.34325266 23.3984375 56.7890625 C22.07204422 55.79975731 20.74389185 54.81280657 19.4140625 53.828125 C10.62285212 47.27475389 2.01122266 40.47595062 -6.58984375 33.67578125 C-13.52586212 28.19360892 -20.52328766 22.85705825 -27.7265625 17.7265625 C-24.19537419 14.09764757 -20.51037789 10.7606672 -16.6015625 7.5390625 C-16.07691406 7.10142578 -15.55226563 6.66378906 -15.01171875 6.21289062 C-9.84948846 1.93281362 -6.73244194 -0.05414833 0 0 Z " fill="#C0694F" transform="translate(91.7265625,-0.7265625)"/>
<path d="M0 0 C0.75974121 0.77182617 1.51948242 1.54365234 2.30224609 2.33886719 C4.2198487 4.23043898 6.04171747 5.94469349 8.1640625 7.578125 C8.72287109 8.01189453 9.28167969 8.44566406 9.85742188 8.89257812 C10.44072266 9.34052734 11.02402344 9.78847656 11.625 10.25 C12.8783097 11.22305027 14.13090644 12.1970195 15.3828125 13.171875 C15.99801758 13.65076172 16.61322266 14.12964844 17.24707031 14.62304688 C19.69486301 16.54582554 22.09894094 18.51930439 24.5 20.5 C29.09086049 24.27992017 33.75206658 27.95884022 38.43945312 31.61743164 C43.85755245 35.85899986 49.18942205 40.20346744 54.49487305 44.58496094 C55.44100464 45.36081543 55.44100464 45.36081543 56.40625 46.15234375 C57.23092773 46.8328479 57.23092773 46.8328479 58.07226562 47.52709961 C60.10939674 49.16112991 60.10939674 49.16112991 63.07791138 50.67927551 C66 53 66 53 66.7215271 56.02459717 C66.70820343 57.20596252 66.69487976 58.38732788 66.68115234 59.60449219 C66.68246658 60.58560219 66.68246658 60.58560219 66.68380737 61.58653259 C66.67963816 63.74120983 66.6330315 65.89274436 66.5859375 68.046875 C66.57474265 69.54329731 66.56620382 71.03974166 66.56021118 72.53619385 C66.53733458 76.46918779 66.47842456 80.40084582 66.4119873 84.33331299 C66.35053767 88.3483269 66.32319064 92.36355734 66.29296875 96.37890625 C66.22867745 104.2532163 66.1263153 112.12644184 66 120 C64.55730445 119.0464998 63.11570123 118.0913467 61.67456055 117.13549805 C60.87165085 116.60377487 60.06874115 116.0720517 59.24150085 115.5242157 C56.63864279 113.75427788 54.2181983 111.84144947 51.8125 109.8125 C47.48078644 106.21290704 43.1104687 102.67377116 38.6875 99.1875 C38.11298096 98.73157471 37.53846191 98.27564941 36.9465332 97.8059082 C34.22666427 95.66619389 31.50539709 93.65518707 28.58203125 91.80078125 C27.72996094 91.20652344 26.87789062 90.61226563 26 90 C26 89.34 26 88.68 26 88 C25.41863281 87.72800781 24.83726563 87.45601563 24.23828125 87.17578125 C22.02103848 86.01105163 20.16769184 84.71599838 18.1875 83.1875 C15.50452237 81.12870479 12.79171128 79.15833003 10 77.25 C9.01 76.5075 8.02 75.765 7 75 C7 74.34 7 73.68 7 73 C6.401875 72.79375 5.80375 72.5875 5.1875 72.375 C2.09908966 70.4337135 1.39085107 68.34467042 0 65 C-0.36076355 61.81082153 -0.36076355 61.81082153 -0.34057617 58.35205078 C-0.34034958 57.05115509 -0.34012299 55.7502594 -0.33988953 54.40994263 C-0.32457301 53.00506235 -0.30892508 51.60018565 -0.29296875 50.1953125 C-0.2873677 48.74657634 -0.28310001 47.29783447 -0.28010559 45.84909058 C-0.26869677 42.05139245 -0.2392644 38.25404307 -0.20599365 34.45648193 C-0.17520678 30.5752026 -0.16158192 26.69386646 -0.14648438 22.8125 C-0.1143903 15.20817501 -0.06324272 7.60413653 0 0 Z " fill="#662113" transform="translate(19,57)"/>
<path d="M0 0 C3.66583573 0.53984958 5.90745774 1.35251009 8.79296875 3.66796875 C9.49655518 4.22452148 10.2001416 4.78107422 10.92504883 5.35449219 C11.67165771 5.95938477 12.4182666 6.56427734 13.1875 7.1875 C14.79929333 8.46768193 16.411278 9.74762299 18.0234375 11.02734375 C18.84682617 11.68589355 19.67021484 12.34444336 20.51855469 13.02294922 C24.42276577 16.13356525 28.36800689 19.19074664 32.3125 22.25 C33.8138123 23.41795562 35.31511461 24.58592407 36.81640625 25.75390625 C40.45138988 28.57763475 44.0977651 31.38614016 47.75 34.1875 C52.2486204 37.64230432 56.72672374 41.12157869 61.1875 44.625 C61.72149414 45.04418701 62.25548828 45.46337402 62.80566406 45.89526367 C63.90417191 46.75973146 64.99391715 47.6354241 66.07568359 48.52075195 C68.06741448 50.09803946 68.06741448 50.09803946 70.61572266 51.65698242 C77.49205578 56.31839573 77.49205578 56.31839573 78.89526367 60.96386719 C79.20191001 64.3833453 79.17034077 67.63439194 79 71.0625 C79.00773437 72.78049805 79.00773437 72.78049805 79.015625 74.53320312 C78.86720938 80.9484684 78.18443231 85.13022791 73.66796875 89.82592773 C72 91 72 91 68 92 C68 83.75 68 75.5 68 67 C64.44229314 69.37180457 61.0137859 71.67919691 57.625 74.25 C56.93664062 74.77078125 56.24828125 75.2915625 55.5390625 75.828125 C54.77722656 76.40820312 54.77722656 76.40820312 54 77 C50.16650745 75.32922843 47.05597565 72.83871537 43.8125 70.25 C43.20446533 69.76901855 42.59643066 69.28803711 41.9699707 68.79248047 C36.42781557 64.38762686 30.98597539 59.86342059 25.53930664 55.34155273 C19.84388887 50.63759041 14.00510348 46.14951777 8.11206055 41.69726562 C3.07418952 37.87207416 -1.79476861 33.89290703 -6.58178711 29.7590332 C-10.41539717 26.45368859 -14.37774868 23.38940849 -18.48828125 20.4375 C-18.98714844 19.963125 -19.48601563 19.48875 -20 19 C-20 18.01 -20 17.02 -20 16 C-17.77134014 13.99214527 -15.57146815 12.17883009 -13.1875 10.375 C-12.54490234 9.87226563 -11.90230469 9.36953125 -11.24023438 8.8515625 C-8.45380051 6.7032653 -6.37341706 5.12447235 -3 4 C-3 3.34 -3 2.68 -3 2 C-2.01 2 -1.02 2 0 2 C0 1.34 0 0.68 0 0 Z " fill="#CCD5DB" transform="translate(62,17)"/>
<path d="M0 0 C6.70916306 1.48914598 12.21973569 6.2261857 17.2734375 10.7265625 C17.2734375 11.3865625 17.2734375 12.0465625 17.2734375 12.7265625 C18.0159375 12.9946875 18.7584375 13.2628125 19.5234375 13.5390625 C22.16405699 14.67933001 24.12896594 15.82036556 26.2734375 17.7265625 C26.2734375 18.3865625 26.2734375 19.0465625 26.2734375 19.7265625 C26.97339844 19.95214844 27.67335937 20.17773438 28.39453125 20.41015625 C31.89203212 22.00942056 34.49277268 24.25969756 37.3359375 26.7890625 C43.4378641 32.08856307 49.77170595 36.92290888 56.2734375 41.7265625 C57.94533947 42.99050037 59.61247992 44.26077652 61.2734375 45.5390625 C61.9540625 46.06113281 62.6346875 46.58320312 63.3359375 47.12109375 C69.13003283 51.92224936 69.13003283 51.92224936 69.72265625 55.24609375 C68.18580641 63.73217767 54.90868833 70.79058323 48.2734375 75.7265625 C42.46853495 72.12048668 37.20014177 68.09202713 31.98803711 63.67553711 C26.24153931 58.81988567 20.26188906 54.27714521 14.2734375 49.7265625 C11.45953144 47.58256883 8.64744334 45.43620242 5.8359375 43.2890625 C5.11623779 42.73992188 4.39653809 42.19078125 3.6550293 41.625 C-0.96306651 38.09495358 -5.54340279 34.52104777 -10.1015625 30.9140625 C-15.86410879 26.35544588 -21.74082102 21.98987633 -27.7265625 17.7265625 C-24.19537419 14.09764757 -20.51037789 10.7606672 -16.6015625 7.5390625 C-16.07691406 7.10142578 -15.55226563 6.66378906 -15.01171875 6.21289062 C-9.84948846 1.93281362 -6.73244194 -0.05414833 0 0 Z " fill="#D99E82" transform="translate(91.7265625,-0.7265625)"/>
<path d="M0 0 C3.66583573 0.53984958 5.90745774 1.35251009 8.79296875 3.66796875 C9.49655518 4.22452148 10.2001416 4.78107422 10.92504883 5.35449219 C11.67165771 5.95938477 12.4182666 6.56427734 13.1875 7.1875 C14.79929333 8.46768193 16.411278 9.74762299 18.0234375 11.02734375 C18.84682617 11.68589355 19.67021484 12.34444336 20.51855469 13.02294922 C24.42276577 16.13356525 28.36800689 19.19074664 32.3125 22.25 C33.8138123 23.41795562 35.31511461 24.58592407 36.81640625 25.75390625 C40.45138926 28.57763426 44.0977021 31.38622297 47.75 34.1875 C53.44795833 38.56169024 59.09886708 42.99328511 64.7421875 47.4375 C68.81387743 50.64332968 72.90412083 53.82515186 77 57 C75.8779984 60.36600479 74.97789911 61.16402307 72.25 63.3125 C71.57453125 63.86550781 70.8990625 64.41851562 70.203125 64.98828125 C68 66 68 66 65.56640625 65.44140625 C62.60344225 63.77727578 60.24756274 61.86279176 57.6875 59.625 C52.99060119 55.59273571 48.16345432 51.80670053 43.1875 48.125 C37.16582881 43.66013709 31.2714248 39.06779763 25.43652344 34.36206055 C21.47425417 31.16976788 17.47815245 28.0299115 13.4375 24.9375 C12.40109375 24.14085938 11.3646875 23.34421875 10.296875 22.5234375 C8.56145165 21.19167489 6.82215373 19.86575767 5.07617188 18.54785156 C3.10696725 17.06084221 1.14687577 15.56242565 -0.8125 14.0625 C-1.4300415 13.60157959 -2.04758301 13.14065918 -2.68383789 12.66577148 C-4.1790624 11.51367827 -5.59769366 10.2635474 -7 9 C-7 8.01 -7 7.02 -7 6 C-5.68 5.34 -4.36 4.68 -3 4 C-3 3.34 -3 2.68 -3 2 C-2.01 2 -1.02 2 0 2 C0 1.34 0 0.68 0 0 Z " fill="#E0E7EB" transform="translate(62,17)"/>
<path d="M0 0 C0.43129684 4.18326516 0.7560502 8.36838773 1.0625 12.5625 C1.18560547 13.74392578 1.30871094 14.92535156 1.43554688 16.14257812 C1.98995681 24.7479845 1.98995681 24.7479845 -0.88696289 28.38647461 C-4.47345773 31.27154219 -6.9504321 32.8711057 -11.5625 33.4375 C-12.366875 33.293125 -13.17125 33.14875 -14 33 C-17.11177195 26.77645611 -16.64298425 16.59897672 -15 10 C-12.11928025 5.45914715 -5.5754643 0 0 0 Z " fill="#9AA9B4" transform="translate(130,84)"/>
</svg>
